<svg width="17" height="17" viewBox="0 0 17 17" fill="none" xmlns="http://www.w3.org/2000/svg">
<path d="M12.933 2.90268C12.933 2.50385 12.7773 2.12839 12.4953 1.84629L11.0867 0.43775C10.8085 0.159541 10.4136 0 10.0207 0H9.93506V2.98828H12.933L12.933 2.90268Z" fill="#8A92A6"/>
<path d="M9.09556 10.2776C9.19089 9.9882 9.35724 9.71875 9.57415 9.50038L12.9463 6.14178V3.98438H9.44672C9.17143 3.98438 8.96484 3.76162 8.96484 3.48633V0H1.49414C0.670238 0 0 0.670238 0 1.49414V15.5059C0 16.3298 0.670238 17 1.49414 17H11.4389C12.2628 17 12.9463 16.3298 12.9463 15.5059V11.7887L12.399 12.3228C12.1772 12.5426 11.9175 12.7026 11.6247 12.8004L10.0411 13.3291L9.79984 13.3422C9.401 13.3422 9.02358 13.1482 8.78917 12.8233C8.55668 12.4998 8.49346 12.0806 8.6199 11.7017L9.09556 10.2776ZM2.49023 8.96484H7.45453C7.72982 8.96484 7.95258 9.1876 7.95258 9.46289C7.95258 9.73818 7.72982 9.96094 7.45453 9.96094H2.49023C2.21495 9.96094 1.99219 9.73818 1.99219 9.46289C1.99219 9.1876 2.21495 8.96484 2.49023 8.96484ZM1.99219 7.4707C1.99219 7.19542 2.21495 6.97266 2.49023 6.97266H7.45453C7.72982 6.97266 7.95258 7.19542 7.95258 7.4707C7.95258 7.74599 7.72982 7.96875 7.45453 7.96875H2.49023C2.21495 7.96875 1.99219 7.74599 1.99219 7.4707ZM1.99219 11.4551C1.99219 11.1798 2.21495 10.957 2.49023 10.957H7.45453C7.72982 10.957 7.95258 11.1798 7.95258 11.4551C7.95258 11.7304 7.72982 11.9531 7.45453 11.9531H2.49023C2.21495 11.9531 1.99219 11.7304 1.99219 11.4551ZM9.44672 13.9453C9.72201 13.9453 9.94477 14.1681 9.94477 14.4434C9.94477 14.7186 9.72204 14.9414 9.44672 14.9414H6.45844C6.18315 14.9414 5.96039 14.7186 5.96039 14.4434C5.96039 14.1681 6.18315 13.9453 6.45844 13.9453H9.44672ZM2.49023 5.97656C2.21495 5.97656 1.99219 5.7538 1.99219 5.47852C1.99219 5.20323 2.21495 4.98047 2.49023 4.98047H9.44672C9.72201 4.98047 9.94477 5.20323 9.94477 5.47852C9.94477 5.7538 9.72201 5.97656 9.44672 5.97656H2.49023Z" fill="#8A92A6"/>
<path d="M9.9978 10.7183L9.56449 12.0182C9.49955 12.2129 9.68485 12.3982 9.87959 12.3331L11.1788 11.8992L9.9978 10.7183Z" fill="#8A92A6"/>
<path d="M13.866 6.61768L10.5859 9.89778L12.0006 11.3124C12.7419 10.5709 14.1844 9.1282 15.2805 8.03213L13.866 6.61768Z" fill="#8A92A6"/>
<path d="M16.7075 5.1891C16.5324 5.01303 16.2746 4.91235 16.0012 4.91235C15.7279 4.91235 15.4701 5.01303 15.294 5.1896L14.5703 5.91333L15.9847 7.32771C16.3809 6.93147 16.6548 6.65761 16.7085 6.60392C17.0975 6.21428 17.0975 5.57964 16.7075 5.1891Z" fill="#8A92A6"/>
<path d="M16.7085 6.60364C16.7085 6.60364 16.7085 6.60361 16.7086 6.60358C16.7097 6.60247 16.7102 6.60198 16.7111 6.60107C16.7102 6.60201 16.7097 6.6025 16.7085 6.60364Z" fill="#8A92A6"/>
<path d="M16.7114 6.6011C16.713 6.5995 16.7149 6.59764 16.7158 6.59668C16.7148 6.59768 16.713 6.5995 16.7114 6.6011Z" fill="#8A92A6"/>
<path d="M16.7158 6.59638C16.7186 6.59355 16.7187 6.59349 16.7158 6.59638V6.59638Z" fill="#8A92A6"/>
</svg>
