<svg width="20" height="21" viewBox="0 0 20 21" fill="none" xmlns="http://www.w3.org/2000/svg">
<path d="M4.92381 4.82432C5.36797 5.14349 5.93655 6.0147 7.1445 6.0147H11.4398C12.6478 6.0147 13.2146 5.14481 13.6605 4.82432H13.6606C13.7116 3.60783 13.3605 2.3928 12.6083 1.17712C12.1547 0.443954 11.3535 0.0131836 10.5065 0.0131836H8.07778C7.23085 0.0131836 6.42966 0.443954 5.97606 1.17712C5.22386 2.3928 4.87274 3.60783 4.92381 4.82432Z" fill="#8A92A6"/>
<path d="M5.18027 6.40807C5.35046 8.26916 5.98745 11.0591 8.21226 12.2857C8.87197 12.6494 9.67476 12.6562 10.3353 12.2941C12.3457 11.1919 13.1622 8.7467 13.3811 6.41044C14.0368 6.40289 14.4187 5.63264 14.0129 5.08862C13.5283 5.43469 12.8589 6.4509 11.4397 6.4509H7.14442C5.72523 6.4509 5.05609 5.43497 4.57116 5.08862C4.17321 5.6218 4.53102 6.38174 5.18027 6.40807Z" fill="#8A92A6"/>
<path d="M15.3744 19.4859C15.2297 19.4357 15.0914 19.3768 14.9574 19.3092L14.7255 19.499C14.5957 19.6037 14.4361 19.6604 14.2744 19.6604C14.0808 19.6604 13.8999 19.5818 13.7616 19.4423L13.3638 19.0344C13.1063 18.7683 13.0808 18.3452 13.3084 18.0486L13.4935 17.8087C13.4276 17.6713 13.3701 17.5295 13.3212 17.3834L13.0297 17.3485C12.6634 17.3046 12.3872 16.9865 12.3872 16.6084V16.0377C12.3872 15.6604 12.6638 15.342 13.0297 15.3006L13.3212 15.2656C13.3701 15.1173 13.4276 14.9756 13.4935 14.8381L13.3105 14.6026C13.0807 14.3038 13.1063 13.8785 13.3637 13.6146L13.7616 13.2068C13.9209 13.0435 14.1368 12.9669 14.3635 12.994C14.504 13.0108 14.635 13.0763 14.7459 13.1662L14.9573 13.3377C15.0871 13.2722 15.2233 13.2155 15.3616 13.1675C14.6395 12.7875 14.2374 12.7093 12.7207 12.3223C12.3227 12.2207 11.9056 12.3433 11.6089 12.6335C10.1081 14.1017 8.49869 14.1151 6.98285 12.6684C6.67383 12.3736 6.24408 12.2534 5.8383 12.3729C5.40396 12.5008 4.90799 12.6385 4.39142 12.7771C1.80426 13.4838 0 15.8829 0 18.631C0 19.3878 0.599983 20.0028 1.34044 20.0028C1.34044 20.0028 11.3212 20.0049 15.4702 20.0072C15.4383 19.9374 15.4148 19.8632 15.4063 19.7847L15.3744 19.4859Z" fill="#8A92A6"/>
<path d="M17.8549 19.3088C17.7212 19.3776 17.5823 19.4364 17.439 19.4854C17.4043 19.7588 17.412 19.8502 17.3506 20.0019C17.6889 19.9734 17.991 19.8161 18.2112 19.5778C18.1682 19.5556 18.1266 19.5304 18.0884 19.4997L17.8549 19.3088Z" fill="#8A92A6"/>
<path d="M19.7349 15.7331L19.1585 15.6651C19.0894 15.3579 18.9712 15.0625 18.8069 14.7966L19.17 14.3298C19.2651 14.2057 19.2536 14.0315 19.147 13.9222L18.7492 13.5145C18.6426 13.4052 18.4726 13.3934 18.3516 13.4909L17.8962 13.8631C17.6368 13.6947 17.3487 13.5736 17.0489 13.5027L16.9826 12.9119C16.9654 12.7553 16.8385 12.6401 16.6858 12.6401H16.1267C15.974 12.6401 15.8472 12.7553 15.8299 12.9119L15.7636 13.5027C15.4638 13.5737 15.1757 13.6947 14.9163 13.8632L14.461 13.4909C14.3399 13.3935 14.1699 13.4053 14.0633 13.5146L13.6655 13.9222C13.5589 14.0315 13.5474 14.2058 13.6425 14.3299L14.0056 14.7966C13.8413 15.0625 13.7231 15.358 13.654 15.6652L13.0776 15.7332C12.9249 15.7508 12.8125 15.8809 12.8125 16.0374V16.6105C12.8125 16.7671 12.9249 16.8971 13.0776 16.9148L13.654 16.9827C13.7231 17.29 13.8413 17.5854 14.0056 17.8513L13.6425 18.318C13.5474 18.4421 13.5589 18.6164 13.6655 18.7257L14.0633 19.1333C14.1699 19.2426 14.3399 19.2545 14.461 19.157L14.9163 18.7848C15.1757 18.9531 15.4638 19.0743 15.7636 19.1451L15.8299 19.7359C15.8472 19.8925 15.974 20.0077 16.1267 20.0077C16.415 19.9681 16.9373 20.1462 16.9826 19.7359L17.049 19.1451C17.3487 19.0742 17.6369 18.9531 17.8963 18.7848L18.3516 19.157C18.4727 19.2545 18.6427 19.2426 18.7494 19.1333L19.147 18.7257C19.2537 18.6164 19.2652 18.4421 19.1701 18.318L18.807 17.8513C18.9713 17.5853 19.0894 17.29 19.1586 16.9827L19.735 16.9148C19.8877 16.897 20.0001 16.767 20.0001 16.6104V16.0374C20 15.8808 19.8876 15.7508 19.7349 15.7331ZM17.3339 17.2742C16.8204 17.8006 15.9898 17.8006 15.4763 17.2743C14.9628 16.7514 14.9628 15.8965 15.4763 15.3736C15.9898 14.8473 16.8204 14.8473 17.3339 15.3736C17.844 15.8965 17.844 16.7514 17.3339 17.2742Z" fill="#8A92A6"/>
</svg>
